<svg width="183" height="40" viewBox="0 0 183 40" fill="none" xmlns="http://www.w3.org/2000/svg">
<path d="M18.5563 19.1213C19.1703 18.1445 19.9796 20.0702 18.8074 21.996C15.2351 27.8848 6.77858 33.0759 1.75493 25.5683C0.471107 23.6426 1.00138 20.4609 2.14566 17.6142C0.0524688 15.5489 0.331561 12.0045 1.78284 9.74381C3.62485 6.84126 6.94604 7.03662 6.05295 7.81808C3.93185 9.63218 1.25256 13.5953 2.89921 15.9676C3.34575 15.1303 3.82021 14.3488 4.29467 13.7069C6.69486 10.3857 11.4115 6.42262 15.5142 6.59008C17.8306 6.6738 20.3983 8.15299 19.4214 10.9439C18.1655 14.6 14.7885 17.8933 10.965 18.8143C8.31359 19.4283 6.27622 19.4283 4.7133 19.0376C3.34575 22.0239 3.06666 24.759 4.21094 26.2102C5.41103 27.7452 9.34623 27.5778 13.7001 24.3961C15.3746 23.196 17.0492 21.4657 18.5563 19.1213ZM11.2161 10.9439C8.78805 12.8417 6.8344 15.1861 5.49476 17.5305C7.78332 17.977 10.6859 17.0002 12.7232 15.5489C14.6769 14.1814 17.1329 11.6695 17.3562 9.29727C17.6074 6.61798 12.9465 9.60427 11.2161 10.9439ZM28.3994 5.97607C28.7064 5.64116 29.432 5.78071 30.0739 6.6738C30.6042 7.42735 30.4647 8.32045 30.1298 9.01818C29.7111 9.82754 26.2783 14.7396 22.678 18.7864C21.7848 20.2935 20.9475 21.7169 20.2777 22.917C23.2083 20.1539 26.5853 16.749 28.5947 14.5721C28.7622 14.3767 28.9576 14.4046 29.0692 14.3767C29.6553 14.3767 31.3857 15.1582 30.7158 16.135C29.4041 18.0608 26.8923 21.4099 25.9434 23.4472C25.5526 24.2845 25.1898 25.0381 25.4689 25.2892C25.748 25.5683 28.6506 23.7542 31.1624 20.0981C31.5531 19.512 32.753 21.0191 31.8043 22.4425C28.3157 27.6336 24.3805 27.4662 23.5711 24.7869C23.2641 23.7542 23.8502 22.0518 24.4363 20.9633C24.4921 20.8238 24.5758 20.6842 24.6595 20.5447C22.3431 22.8332 19.6637 25.1218 18.4915 26.3498C18.2682 26.5452 18.0729 26.6568 17.738 26.5731C16.9565 26.3777 15.8122 25.5404 16.0913 25.0101C16.4541 24.3124 18.4078 21.1587 19.9428 18.4236C20.8917 16.749 26.5295 8.01344 28.3994 5.97607ZM37.348 17.2235C36.8456 18.0887 35.6176 19.6795 35.0315 20.4889C33.8872 22.1076 32.8546 24.452 33.3849 24.9264C34.1942 25.5962 37.348 22.275 38.799 20.2098C39.1342 19.7353 40.4459 21.047 39.4133 22.582C36.8177 26.4893 34.0547 27.2429 32.8546 26.1544C29.7006 23.2519 31.5987 20.9075 33.357 18.3678C34.4175 16.8327 35.6176 15.5489 35.7293 15.3815C36.3153 14.7396 37.655 16.6653 37.348 17.2235ZM40.5575 10.3857C41.2274 10.8323 41.339 11.8928 40.7808 12.7301C40.2226 13.5953 39.2179 13.9023 38.5481 13.4557C37.8503 13.0371 37.7664 11.9766 38.3248 11.1393C38.8551 10.2741 39.8598 9.96709 40.5575 10.3857ZM42.0749 25.987C41.4609 26.2102 39.3677 24.9543 40.0375 24.5636C42.2982 23.224 44.2518 21.5494 45.731 19.3725C47.2939 17.056 47.1264 16.3862 46.8474 16.0513C46.4008 15.5489 44.8658 15.214 42.1028 18.591C41.6283 19.1492 40.9864 16.6653 42.0191 15.4652C43.7494 13.5395 46.3729 13.9023 46.9032 14.1535C49.4987 15.2977 49.722 17.3351 48.3824 19.7911C47.4614 21.4378 46.4008 23.0565 45.117 24.0891C45.3961 24.1171 45.6194 24.1729 45.8705 24.2566C46.2054 24.3961 46.5122 24.5636 46.7915 24.7869C49.1359 23.224 50.1965 21.9401 51.3128 20.2935C51.6756 19.7911 53.0711 21.1587 51.9547 22.6658C50.6709 24.3961 49.415 25.2892 47.8242 26.294C48.1312 27.1312 48.187 28.1639 47.88 29.3082C47.2381 31.7084 43.4145 36.0901 40.5399 35.0575C36.8836 33.7457 40.0933 30.4803 41.6842 28.8058C42.7726 27.6894 43.7773 26.7126 45.2844 25.7637C44.6425 25.4009 43.5541 25.5125 42.0749 25.987ZM45.3961 28.7779C45.5914 28.3592 45.731 27.9685 45.8147 27.6336C44.6983 28.5267 43.6378 29.6152 42.7726 30.6199C41.3492 32.2665 40.4282 33.355 40.7352 33.7457C41.0422 34.1085 42.6052 32.4898 43.6378 31.3734C44.3355 30.6478 44.9495 29.7268 45.3961 28.7779ZM54.694 25.987C54.08 26.2102 51.9868 24.9543 52.6566 24.5636C54.9173 23.224 56.8709 21.5494 58.3501 19.3725C59.913 17.056 59.7455 16.3862 59.4665 16.0513C59.0199 15.5489 57.4849 15.214 54.7219 18.591C54.2474 19.1492 53.6055 16.6653 54.6382 15.4652C56.3685 13.5395 58.992 13.9023 59.5223 14.1535C62.1178 15.2977 62.3411 17.3351 61.0015 19.7911C60.0805 21.4378 59.0199 23.0565 57.7361 24.0891C58.0152 24.1171 58.2385 24.1729 58.4896 24.2566C58.8245 24.3961 59.1313 24.5636 59.4106 24.7869C61.755 23.224 62.8156 21.9401 63.9319 20.2935C64.2947 19.7911 65.6902 21.1587 64.5738 22.6658C63.29 24.3961 62.0341 25.2892 60.4433 26.294C60.7503 27.1312 60.8061 28.1639 60.4991 29.3082C59.8572 31.7084 56.0336 36.0901 53.159 35.0575C49.5027 33.7457 52.7124 30.4803 54.3033 28.8058C55.3917 27.6894 56.3964 26.7126 57.9033 25.7637C57.2616 25.4009 56.1732 25.5125 54.694 25.987ZM58.0152 28.7779C58.2105 28.3592 58.3501 27.9685 58.4338 27.6336C57.3174 28.5267 56.2569 29.6152 55.3917 30.6199C53.9683 32.2665 53.0473 33.355 53.3543 33.7457C53.6613 34.1085 55.2243 32.4898 56.2569 31.3734C56.9546 30.6478 57.5686 29.7268 58.0152 28.7779ZM77.2767 20.2935C77.6393 19.7911 78.9231 21.1308 77.9186 22.6658C76.9697 24.0612 76.0487 25.0101 74.9881 25.7358C73.6206 26.6568 71.4716 27.4382 69.4621 28.1918C67.8992 30.5641 65.806 34.0248 64.7175 35.3365C63.5732 36.732 62.8474 35.7831 62.5125 35.3365C61.9822 34.6667 62.345 33.2434 63.1265 31.7084C63.9361 30.1454 64.8571 29.0012 66.8107 27.8569C66.9224 27.6894 67.4247 27.0754 67.9829 26.3219C66.9782 26.7963 65.9455 26.7684 64.9687 25.8474C63.3218 24.3124 64.0198 21.661 66.1688 18.5073C67.7038 16.2746 68.4015 15.4931 68.876 14.9628C69.6016 14.1256 71.3041 15.9397 70.8296 16.5537L67.8434 20.6842C66.6433 22.3588 65.4711 24.5078 65.7781 24.9264C66.0572 25.2613 67.4247 24.5915 70.1877 21.1308L74.4857 14.9349C74.7927 14.3488 77.0255 15.5489 76.5789 16.4141C76.0487 17.1956 74.402 19.9307 73.3694 21.6331C72.9786 22.275 71.7504 24.2287 70.7459 25.8753C71.2762 25.6241 71.946 25.3171 72.1414 25.2055C72.8112 24.8985 74.0671 24.1171 74.7927 23.3635C75.7138 22.3867 76.6348 21.2145 77.2767 20.2935Z" fill="#FF6244"/>
<path d="M94.6573 12.8784C94.0618 12.0783 93.327 11.4829 92.4525 11.0922C91.5779 10.6829 90.6663 10.4782 89.7174 10.4782C88.6195 10.4782 87.6056 10.7015 86.6753 11.148C85.7636 11.5946 84.9728 12.1992 84.303 12.9621C83.6332 13.7063 83.1123 14.5808 82.7401 15.5856C82.3679 16.5717 82.1819 17.6043 82.1819 18.6835C82.1819 19.8371 82.3679 20.9162 82.7401 21.921C83.1123 22.9072 83.6238 23.7723 84.2751 24.5165C84.9449 25.2422 85.7357 25.8189 86.6473 26.2469C87.5777 26.6749 88.601 26.8888 89.7174 26.8888C90.9268 26.8888 92.0059 26.6561 92.9548 26.1911C93.9037 25.7072 94.7316 25.0189 95.4387 24.1258L97.197 25.605C96.3039 26.7957 95.2248 27.6703 93.9596 28.2284C92.713 28.7866 91.2988 29.0657 89.7174 29.0657C88.3034 29.0657 86.9823 28.8052 85.7543 28.2843C84.5262 27.7634 83.4563 27.0469 82.5447 26.1352C81.6516 25.2049 80.9445 24.1073 80.4236 22.842C79.9212 21.5767 79.67 20.1906 79.67 18.6835C79.67 17.2322 79.9119 15.874 80.3957 14.6087C80.898 13.3435 81.5958 12.2458 82.4889 11.3155C83.382 10.3851 84.4425 9.65022 85.6705 9.11064C86.8985 8.57105 88.2475 8.30127 89.7174 8.30127C91.057 8.30127 92.3408 8.54314 93.5688 9.02691C94.8154 9.51068 95.8574 10.3014 96.6947 11.3992L94.6573 12.8784ZM101.555 8.80364H103.9V17.1764H114.449V8.80364H116.794V28.5633H114.449V19.3533H103.9V28.5633H101.555V8.80364ZM131.969 29.0657C130.462 29.0657 129.076 28.8052 127.811 28.2843C126.564 27.7634 125.476 27.0469 124.545 26.1352C123.634 25.2049 122.917 24.1073 122.396 22.842C121.894 21.5581 121.643 20.172 121.643 18.6835C121.643 17.195 121.894 15.8182 122.396 14.5529C122.917 13.2691 123.634 12.1713 124.545 11.2596C125.476 10.3293 126.564 9.60369 127.811 9.08273C129.076 8.56176 130.462 8.30127 131.969 8.30127C133.476 8.30127 134.853 8.56176 136.1 9.08273C137.365 9.60369 138.454 10.3293 139.365 11.2596C140.296 12.1713 141.012 13.2691 141.514 14.5529C142.035 15.8182 142.296 17.195 142.296 18.6835C142.296 20.172 142.035 21.5581 141.514 22.842C141.012 24.1073 140.296 25.2049 139.365 26.1352C138.454 27.0469 137.365 27.7634 136.1 28.2843C134.853 28.8052 133.476 29.0657 131.969 29.0657ZM131.969 26.8888C133.123 26.8888 134.174 26.6749 135.123 26.2469C136.09 25.8189 136.919 25.2328 137.607 24.4886C138.295 23.7444 138.826 22.8792 139.198 21.893C139.588 20.8883 139.784 19.8185 139.784 18.6835C139.784 17.5485 139.588 16.488 139.198 15.5018C138.826 14.4971 138.295 13.6226 137.607 12.8784C136.919 12.1341 136.09 11.548 135.123 11.1201C134.174 10.6922 133.123 10.4782 131.969 10.4782C130.816 10.4782 129.755 10.6922 128.788 11.1201C127.839 11.548 127.02 12.1341 126.332 12.8784C125.643 13.6226 125.104 14.4971 124.713 15.5018C124.341 16.488 124.155 17.5485 124.155 18.6835C124.155 19.8185 124.341 20.8883 124.713 21.893C125.104 22.8792 125.643 23.7444 126.332 24.4886C127.02 25.2328 127.839 25.8189 128.788 26.2469C129.755 26.6749 130.816 26.8888 131.969 26.8888ZM147.153 8.80364H153.014C153.926 8.80364 154.791 8.89667 155.61 9.08273C156.447 9.25018 157.182 9.54787 157.814 9.97582C158.466 10.3851 158.977 10.9433 159.349 11.6504C159.74 12.3388 159.936 13.1947 159.936 14.218C159.936 15.2972 159.731 16.1903 159.322 16.8973C158.912 17.6043 158.382 18.1625 157.731 18.5719C157.098 18.9812 156.4 19.2696 155.638 19.437C154.875 19.6045 154.149 19.6882 153.461 19.6882H149.498V28.5633H147.153V8.80364ZM149.498 17.5113H153.461C154.633 17.5113 155.582 17.2508 156.307 16.7298C157.052 16.1903 157.424 15.3623 157.424 14.2459C157.424 13.1296 157.052 12.3109 156.307 11.7899C155.582 11.2503 154.633 10.9806 153.461 10.9806H149.498V17.5113ZM174.165 12.2923C173.774 11.6597 173.253 11.2038 172.602 10.9247C171.95 10.627 171.272 10.4782 170.564 10.4782C170.044 10.4782 169.532 10.5433 169.029 10.6736C168.527 10.8038 168.071 10.9992 167.662 11.2596C167.271 11.5201 166.955 11.8643 166.713 12.2923C166.471 12.7202 166.35 13.2226 166.35 13.7994C166.35 14.2459 166.415 14.646 166.545 14.9995C166.694 15.3344 166.927 15.6414 167.243 15.9205C167.56 16.1996 167.987 16.4601 168.527 16.7019C169.067 16.9438 169.727 17.1857 170.509 17.4276C171.272 17.6694 172.006 17.9299 172.713 18.209C173.439 18.4881 174.072 18.8416 174.611 19.2696C175.169 19.6975 175.607 20.2371 175.923 20.8883C176.258 21.5209 176.425 22.3211 176.425 23.2885C176.425 24.2747 176.23 25.1305 175.839 25.8562C175.449 26.5818 174.928 27.1864 174.276 27.6703C173.644 28.1353 172.909 28.4796 172.072 28.7029C171.234 28.9447 170.369 29.0657 169.476 29.0657C168.899 29.0657 168.322 29.0099 167.746 28.8983C167.169 28.8052 166.611 28.6565 166.071 28.4517C165.55 28.2284 165.057 27.9493 164.592 27.6144C164.127 27.261 163.727 26.833 163.392 26.3306L165.401 24.684C165.829 25.4096 166.424 25.9584 167.187 26.3306C167.95 26.7028 168.76 26.8888 169.616 26.8888C170.118 26.8888 170.62 26.8144 171.123 26.6655C171.643 26.5166 172.109 26.3027 172.518 26.0236C172.927 25.726 173.262 25.3632 173.523 24.9352C173.783 24.5071 173.914 24.0141 173.914 23.456C173.914 22.842 173.811 22.349 173.607 21.9768C173.402 21.586 173.086 21.2511 172.658 20.972C172.23 20.693 171.69 20.4418 171.039 20.2185C170.388 19.9952 169.625 19.7347 168.75 19.437C168.043 19.2138 167.392 18.9626 166.797 18.6835C166.201 18.3858 165.68 18.0323 165.234 17.6229C164.806 17.195 164.462 16.6926 164.201 16.1158C163.959 15.5204 163.838 14.8134 163.838 13.9947C163.838 13.0458 164.024 12.2179 164.396 11.5108C164.769 10.8038 165.271 10.2177 165.904 9.75255C166.536 9.26878 167.253 8.90596 168.053 8.66409C168.853 8.42222 169.69 8.30127 170.564 8.30127C171.681 8.30127 172.695 8.47804 173.607 8.83154C174.537 9.16646 175.365 9.76186 176.09 10.6177L174.165 12.2923Z" fill="black"/>
<path d="M99.8626 20.5352L101.536 16.1078H104.432L103.659 20.5352H99.8626Z" fill="#FC2E06"/>
<path d="M118.396 20.2748L116.746 16.1078H113.891L114.653 20.2748H118.396Z" fill="#FC2E06"/>
<path d="M107.649 16.1078H104.367L103.595 20.4701H107.392L107.649 16.1078Z" fill="#E7E7E7"/>
<path d="M110.674 16.1078H113.956L114.728 20.4701H110.931L110.674 16.1078Z" fill="#E7E7E7"/>
<path d="M107.327 20.405L107.589 16.1078H110.929L111.06 20.405H107.327Z" fill="#FC2E06"/>
<path d="M99.8626 20.405H103.595V21.2734C103.595 22.3041 102.759 23.1396 101.729 23.1396C100.698 23.1396 99.8626 22.3041 99.8626 21.2734V20.405Z" fill="#FF6244"/>
<path d="M103.599 20.3608H107.336V21.2145C107.336 22.2464 106.5 23.0828 105.468 23.0828C104.436 23.0828 103.599 22.2464 103.599 21.2145V20.3608Z" fill="#CBCBCB"/>
<path d="M107.327 20.2748H111.06V21.1431C111.06 22.1739 110.224 23.0094 109.194 23.0094C108.163 23.0094 107.327 22.1739 107.327 21.1431V20.2748Z" fill="#FF6244"/>
<path d="M111.06 20.2748H114.663V21.2075C114.663 22.2027 113.856 23.0094 112.861 23.0094C111.866 23.0094 111.06 22.2027 111.06 21.2075V20.2748Z" fill="#CBCBCB"/>
<path d="M114.664 20.2748H118.396V21.1431C118.396 22.1739 117.561 23.0094 116.53 23.0094C115.499 23.0094 114.664 22.1739 114.664 21.1431V20.2748Z" fill="#FF6244"/>
</svg>
