<svg width="54" height="38" viewBox="0 0 54 38" fill="none" xmlns="http://www.w3.org/2000/svg">
<path d="M10.3536 3.35301C5.46618 6.86757 1.3967 11.7354 0.316218 17.8354C-0.764264 23.9354 0.831214 31.3786 5.8701 35.2567C10.4445 38.7814 19.4418 38.5087 22.9155 33.5297C24.1586 31.7617 24.776 29.6293 24.6699 27.4705C24.5638 25.3117 23.7403 23.2501 22.3298 21.6125C20.8198 19.9232 18.7435 18.8454 16.4932 18.5828C13.6354 18.2394 10.5858 18.9463 8.05126 17.2194C3.73943 14.3108 7.36459 9.39239 10.2324 6.79687C13.484 3.86807 18.1088 1.80782 17.2303 0.131331C16.8769 -0.545322 12.8579 1.55533 10.3536 3.35301Z" fill="#0D0A47"/>
<path d="M39.6679 3.35301C34.7805 6.86757 30.711 11.7354 29.6305 17.8354C28.55 23.9354 30.1455 31.3786 35.1844 35.2567C39.7487 38.7814 48.746 38.5087 52.2298 33.5297C53.4712 31.7611 54.0876 29.629 53.9815 27.4706C53.8755 25.3123 53.0529 23.2509 51.6441 21.6126C50.1316 19.921 48.0513 18.843 45.7974 18.5828C42.9497 18.2394 39.9001 18.9463 37.3555 17.2194C33.0436 14.2906 36.6688 9.3722 39.5467 6.77668C42.7983 3.84788 47.4231 1.78762 46.5446 0.111138C46.1912 -0.545317 42.1621 1.55534 39.6679 3.35301Z" fill="#0D0A47"/>
</svg>
